<svg width="105" height="38" viewBox="0 0 105 38" fill="none" xmlns="http://www.w3.org/2000/svg">
<path d="M26.8829 23.3274L53.7659 7.76879V14.0217L26.8829 29.5909V23.3274ZM26.8829 7.77931L0 23.3274V29.5909L26.8829 14.0217V7.77931ZM53.7764 0L0 31.1173V37.3702L53.7764 6.26345V0ZM26.8829 0L0 15.5586V21.8221L26.8829 6.25293V0ZM53.7764 15.5481L26.8829 31.1067V37.3702L53.7659 21.801V15.5481H53.7764ZM63.1366 21.8958H64.4707L65.952 24.2854L67.4332 21.8958H68.7674V27.5381H67.5383V23.8538L65.952 26.2644H65.9205L64.3552 23.8748V27.5381H63.1366V21.8958ZM70.1226 21.8958H74.3667V23.0011H71.3517V24.1485H74.0095V25.2538H71.3517V26.4434H74.4087V27.5487H70.1226V21.8958ZM75.1231 26.717L75.8584 25.8433C76.3627 26.2644 76.8984 26.5276 77.5393 26.5276C78.0435 26.5276 78.3482 26.3276 78.3482 25.9907V25.9696C78.3482 25.6538 78.1591 25.4959 77.2136 25.2538C76.079 24.9591 75.3437 24.6538 75.3437 23.5274V23.5064C75.3437 22.4853 76.1631 21.801 77.3187 21.801C78.1381 21.801 78.8419 22.0642 79.4092 22.5168L78.7684 23.4537C78.2746 23.1063 77.7809 22.8958 77.3082 22.8958C76.8354 22.8958 76.5833 23.1169 76.5833 23.3906V23.4116C76.5833 23.7801 76.8249 23.9064 77.8019 24.1485C78.947 24.4433 79.5878 24.8538 79.5878 25.8433V25.8644C79.5878 26.9802 78.7369 27.6118 77.5183 27.6118C76.6568 27.6224 75.7954 27.3171 75.1231 26.717ZM80.1971 26.717L80.9325 25.8433C81.4367 26.2644 81.9725 26.5276 82.6133 26.5276C83.1176 26.5276 83.4222 26.3276 83.4222 25.9907V25.9696C83.4222 25.6538 83.2331 25.4959 82.2876 25.2538C81.1531 24.9591 80.4177 24.6538 80.4177 23.5274V23.5064C80.4177 22.4853 81.2371 21.801 82.3927 21.801C83.2121 21.801 83.916 22.0642 84.4832 22.5168L83.8424 23.4537C83.3487 23.1063 82.8549 22.8958 82.3822 22.8958C81.9095 22.8958 81.6573 23.1169 81.6573 23.3906V23.4116C81.6573 23.7801 81.8989 23.9064 82.8759 24.1485C84.021 24.4433 84.6618 24.8538 84.6618 25.8433V25.8644C84.6618 26.9802 83.8109 27.6118 82.5923 27.6118C81.7309 27.6224 80.8694 27.3171 80.1971 26.717ZM85.7334 21.8958H89.9775V23.0011H86.9625V24.1485H89.6098V25.2538H86.952V26.4434H90.009V27.5487H85.7229V21.8958H85.7334ZM63.1366 31.6752H64.4707L65.952 34.0648L67.4332 31.6752H68.7674V37.3175H67.5383V33.6332L65.952 36.0438H65.9205L64.3552 33.6542V37.3175H63.1366V31.6752ZM70.028 34.8964V31.6752H71.2676V34.8648C71.2676 35.7806 71.7299 36.2543 72.4862 36.2543C73.2426 36.2543 73.7048 35.7912 73.7048 34.8964V31.6646H74.9445V34.8437C74.9445 36.5491 73.9885 37.3912 72.4757 37.3912C70.9525 37.4018 70.028 36.5596 70.028 34.8964ZM71.0155 30.2119H72.1921V31.2331H71.0155V30.2119ZM72.7699 30.2119H73.9465V31.2331H72.7699V30.2119ZM76.2051 31.6752H77.3502L79.987 35.149V31.6752H81.2056V37.3175H80.1551L77.4237 33.7279V37.3175H76.2051V31.6752ZM82.3087 34.5174V34.4964C82.3087 32.8963 83.5168 31.5804 85.2501 31.5804C86.3111 31.5804 86.952 31.9383 87.4667 32.4542L86.6788 33.37C86.2481 32.97 85.8069 32.7384 85.2396 32.7384C84.2941 32.7384 83.6113 33.5279 83.6113 34.4964V34.5174C83.6113 35.4859 84.2836 36.2859 85.2396 36.2859C85.8804 36.2859 86.2796 36.0227 86.7209 35.6227L87.5088 36.4228C86.931 37.0438 86.2901 37.4333 85.1976 37.4333C83.5378 37.4123 82.3087 36.128 82.3087 34.5174ZM88.4962 31.6752H89.7359V33.9069H92.026V31.6752H93.2656V37.3175H92.026V35.0543H89.7359V37.3175H88.4962V31.6752ZM94.6103 31.6752H98.8544V32.7805H95.8394V33.9279H98.4972V35.0332H95.8394V36.2122H98.8964V37.3175H94.6103V31.6752ZM99.9995 31.6752H101.145L103.781 35.149V31.6752H105V37.3175H103.949L101.218 33.7279V37.3175H99.9995V31.6752Z" fill="#112072"/>
</svg>
