<svg xmlns="http://www.w3.org/2000/svg" viewBox="0 0 88 88" fill="none">
  <rect width="88" height="88" fill="#101014"/>
  <circle cx="44" cy="44" r="40" fill="#0a1018" stroke="rgba(0,229,255,0.35)" stroke-width="1"/>
  <path d="M28 52c8-14 20-22 32-22 4 0 8 1 11 3-6 2-11 6-14 11-5 8-14 14-24 16-2 0-4-1-5-2 0-2 0-4 0-6z" fill="#1a2430"/>
  <path d="M60 33c6 4 9 10 9 17 0 3-1 6-2 8-5-1-9-4-12-8 2-6 3-11 5-17z" fill="#2a3545"/>
  <circle cx="52" cy="38" r="2.5" fill="#00e5ff" opacity="0.85"/>
</svg>
