<svg xmlns="http://www.w3.org/2000/svg" viewBox="0 0 64 64">
  <rect width="64" height="64" rx="14" fill="#14171c"/>
  <defs>
    <clipPath id="frame">
      <rect x="7" y="7" width="50" height="50" rx="9"/>
    </clipPath>
  </defs>
  <g clip-path="url(#frame)">
    <rect x="7" y="7" width="50" height="50" fill="#f2f4f7"/>
    <circle cx="32" cy="32" r="18" fill="#14171c"/>
    <path d="M32 14a18 18 0 0 1 15.6 9L40 27.5a9 9 0 0 0-8-4.5z" fill="#f59e5b"/>
    <g fill="none" stroke="#f2f4f7" stroke-opacity=".3" stroke-width="1.5">
      <path d="m32 23-9-5.2M40 27.5l7.6-4.5M40 36.5l7.6 4.5M32 41v9M24 36.5 16.4 41M24 27.5l-7.6-4.5"/>
    </g>
    <path d="m32 23 8 4.5v9L32 41l-8-4.5v-9z" fill="#f2f4f7"/>
  </g>
  <rect x="7.5" y="7.5" width="49" height="49" rx="8.5" fill="none" stroke="#fff" stroke-opacity=".14"/>
</svg>
