{
  "accessors": [
    {
      "bufferView": 0,
      "componentType": 5126,
      "count": 12517,
      "type": "VEC3",
      "max": [0.093490369617939, 0.613702118396759, 0.13861888647079468],
      "min": [-0.093490369617939, 0.0, -0.21151410043239594]
    },
    {
      "bufferView": 1,
      "componentType": 5126,
      "count": 12517,
      "type": "VEC3",
      "max": [1.0, 1.0, 1.0],
      "min": [-1.0, -1.0, -1.0]
    },
    {
      "bufferView": 2,
      "componentType": 5126,
      "count": 12517,
      "type": "VEC4",
      "max": [1.0, 1.0, 1.0, 1.0],
      "min": [-1.0, -1.0, -1.0, -1.0]
    },
    {
      "bufferView": 3,
      "componentType": 5126,
      "count": 12517,
      "type": "VEC2",
      "max": [0.99464672803878784, 0.99747037887573242],
      "min": [0.0016347568016499281, 0.00015433353837579489]
    },
    {
      "bufferView": 4,
      "componentType": 5125,
      "count": 29964,
      "type": "SCALAR",
      "max": [12516.0],
      "min": [0.0]
    }
  ],
  "asset": {
    "generator": "harp-configurator-demo (copy of Unity2Skfb, albedo only)",
    "version": "2.0"
  },
  "buffers": [
    {
      "uri": "Unity2Skfb.bin",
      "byteLength": 720672
    }
  ],
  "bufferViews": [
    { "buffer": 0, "byteLength": 150204 },
    { "buffer": 0, "byteOffset": 150204, "byteLength": 150204 },
    { "buffer": 0, "byteOffset": 300408, "byteLength": 200272 },
    { "buffer": 0, "byteOffset": 500680, "byteLength": 100136 },
    { "buffer": 0, "byteOffset": 600816, "byteLength": 119856 }
  ],
  "images": [
    {
      "uri": "19236_MT_Harp_AlbedoTransparency.jpg",
      "name": "MT_Harp_AlbedoTransparency"
    }
  ],
  "materials": [
    {
      "pbrMetallicRoughness": {
        "baseColorTexture": { "index": 0 },
        "metallicFactor": 0.0,
        "roughnessFactor": 0.5
      },
      "name": "Harp"
    }
  ],
  "meshes": [
    {
      "primitives": [
        {
          "attributes": {
            "POSITION": 0,
            "NORMAL": 1,
            "TANGENT": 2,
            "TEXCOORD_0": 3
          },
          "indices": 4,
          "material": 0
        }
      ],
      "name": "Harp"
    }
  ],
  "nodes": [
    {
      "mesh": 0,
      "rotation": [0.0, 0.0, 0.0, -1.0],
      "name": "Harp"
    }
  ],
  "samplers": [
    { "minFilter": 9987, "magFilter": 9729 }
  ],
  "scene": 0,
  "scenes": [
    {
      "nodes": [0],
      "name": "Harp"
    }
  ],
  "textures": [
    {
      "sampler": 0,
      "source": 0,
      "name": "MT_Harp_AlbedoTransparency"
    }
  ]
}
